<svg width="203" height="202" viewBox="0 0 203 202" fill="none" xmlns="http://www.w3.org/2000/svg">
<g id="table">
<mask id="mask0_35_406" style="mask-type:alpha" maskUnits="userSpaceOnUse" x="-1" y="-2" width="205" height="204">
<rect id="maskj" x="-0.5" y="-1.5" width="204" height="203" rx="15.5" fill="#D9D9D9" stroke="#ECEDED"/>
</mask>
<g mask="url(#mask0_35_406)">
<g id="table_2" opacity="0.28">
<g id="Group">
<g id="Group_2">
<g id="Group_3">
<g id="Group_4">
<path id="Vector" fill-rule="evenodd" clip-rule="evenodd" d="M103.733 52.8254C105.543 52.8254 106.991 54.3009 106.991 56.0827V144.558C106.991 146.367 105.515 147.815 103.733 147.815C101.924 147.815 100.476 146.339 100.476 144.558V56.1105C100.476 54.3009 101.952 52.8532 103.733 52.8532V52.8254Z" fill="white" stroke="#231F20" stroke-miterlimit="10"/>
<path id="Vector_2" d="M103.733 148.539C101.534 148.539 99.7522 146.757 99.7522 144.558V56.1105C99.7522 53.9112 101.534 52.1294 103.733 52.1294C105.933 52.1294 107.714 53.9112 107.714 56.1105V144.586C107.714 146.785 105.933 148.567 103.733 148.567V148.539ZM103.733 53.5214C102.313 53.5214 101.172 54.6628 101.172 56.0827V144.558C101.172 145.977 102.313 147.119 103.733 147.119C105.153 147.119 106.295 145.977 106.295 144.558V56.1105C106.295 54.6907 105.153 53.5492 103.733 53.5492V53.5214Z" fill="#070707" stroke="#231F20" stroke-miterlimit="10"/>
</g>
<g id="Group_5">
<path id="Vector_3" fill-rule="evenodd" clip-rule="evenodd" d="M151.256 100.348C151.256 102.158 149.78 103.633 147.999 103.633H59.4958C57.6862 103.633 56.2385 102.158 56.2385 100.348C56.2385 98.5384 57.714 97.0907 59.4958 97.0907H147.971C149.78 97.0907 151.228 98.5663 151.228 100.348H151.256Z" fill="white" stroke="#231F20" stroke-miterlimit="10"/>
<path id="Vector_4" d="M147.971 104.329H59.4958C57.2964 104.329 55.5147 102.547 55.5147 100.348C55.5147 98.1487 57.2964 96.3669 59.4958 96.3669H147.971C150.17 96.3669 151.952 98.1487 151.952 100.348C151.952 102.547 150.17 104.329 147.971 104.329ZM59.4958 97.7867C58.076 97.7867 56.9345 98.9282 56.9345 100.348C56.9345 101.768 58.076 102.909 59.4958 102.909H147.971C149.391 102.909 150.532 101.768 150.532 100.348C150.532 98.9282 149.391 97.7867 147.971 97.7867H59.4958Z" fill="#070707" stroke="#231F20" stroke-miterlimit="10"/>
</g>
</g>
<g id="Group_6">
<path id="Vector_5" fill-rule="evenodd" clip-rule="evenodd" d="M103.733 141.662C126.506 141.662 145.075 123.093 145.075 100.32C145.075 77.5472 126.506 58.978 103.733 58.978C80.9603 58.978 62.3911 77.5472 62.3911 100.32C62.3911 123.093 80.9603 141.662 103.733 141.662Z" fill="white" stroke="#231F20" stroke-miterlimit="10"/>
<path id="Vector_6" d="M103.733 142.386C80.5427 142.386 61.6673 123.511 61.6673 100.348C61.6673 77.1853 80.5427 58.282 103.733 58.282C126.924 58.282 145.799 77.1574 145.799 100.348C145.799 123.539 126.924 142.386 103.733 142.386ZM103.733 59.7018C81.3222 59.7018 63.0871 77.9369 63.0871 100.348C63.0871 122.759 81.3222 140.966 103.733 140.966C126.144 140.966 144.379 122.731 144.379 100.348C144.379 77.9648 126.144 59.7018 103.733 59.7018V59.7018Z" fill="#070707" stroke="#231F20" stroke-miterlimit="10"/>
</g>
</g>
<g id="Group_7">
<g id="Group_8">
<path id="Vector_7" fill-rule="evenodd" clip-rule="evenodd" d="M131.907 54.7185L153.4 76.2109C154.875 77.6864 157.297 77.6864 158.773 76.2109L181.045 53.939L154.151 27.0735L131.879 49.3454C130.404 50.8209 130.404 53.243 131.879 54.7185H131.907Z" fill="white" stroke="#231F20" stroke-miterlimit="10"/>
<path id="Vector_8" d="M156.072 78.0483C154.875 78.0483 153.734 77.575 152.871 76.7398L131.378 55.2475C130.515 54.4123 130.07 53.2708 130.07 52.0737C130.07 50.8766 130.543 49.7352 131.378 48.8721L154.151 26.0713L182.019 53.939L159.246 76.712C158.411 77.575 157.269 78.0205 156.044 78.0205L156.072 78.0483ZM154.151 28.1036L132.38 49.8744C131.796 50.459 131.49 51.2385 131.49 52.0459C131.49 52.8811 131.796 53.6606 132.38 54.2174L153.873 75.7097C155.042 76.879 157.074 76.879 158.244 75.7097L180.014 53.939L154.151 28.0758V28.1036Z" fill="#070707" stroke="#231F20" stroke-miterlimit="10"/>
</g>
<g id="Group_9">
<path id="Vector_9" fill-rule="evenodd" clip-rule="evenodd" d="M158.745 25.9878L182.13 49.3733C183.606 50.8488 185.081 53.6328 182.437 54.4401L179.736 55.2753L152.843 28.382L153.678 25.6816C154.569 22.7305 157.269 24.5123 158.745 25.9878V25.9878Z" fill="white" stroke="#231F20" stroke-miterlimit="10"/>
<path id="Vector_10" d="M179.513 56.0548L152.063 28.6047L153.01 25.4867C153.567 23.6771 154.736 23.3987 155.404 23.3987C156.991 23.3987 158.633 24.8742 159.246 25.5145L182.631 48.9C183.745 50.0136 184.914 51.851 184.524 53.3822C184.385 53.9668 183.94 54.7742 182.631 55.1361L179.513 56.0827V56.0548ZM153.65 28.1871L179.931 54.468L182.242 53.772C183.021 53.5214 183.132 53.1316 183.16 53.0203C183.355 52.2964 182.687 50.9601 181.629 49.9022L158.244 26.4889C157.214 25.4588 156.1 24.7907 155.404 24.7907C155.209 24.7907 154.708 24.7907 154.374 25.8764L153.678 28.1871H153.65Z" fill="#070707" stroke="#231F20" stroke-miterlimit="10"/>
</g>
</g>
<g id="Group_10">
<g id="Group_11">
<path id="Vector_11" fill-rule="evenodd" clip-rule="evenodd" d="M78.0928 145.282L56.6004 123.789C55.1249 122.314 52.7029 122.314 51.2274 123.789L28.9555 146.061L55.8209 172.926L78.0928 150.655C79.5683 149.179 79.5683 146.757 78.0928 145.282Z" fill="white" stroke="#231F20" stroke-miterlimit="10"/>
<path id="Vector_12" d="M55.8209 173.929L27.9533 146.033L50.7262 123.26C52.4245 121.562 55.4033 121.562 57.1016 123.26L78.5939 144.753C80.3478 146.506 80.3478 149.374 78.5939 151.128L55.8209 173.901V173.929ZM29.9577 146.033L55.8209 171.896L77.5917 150.126C78.7888 148.929 78.7888 146.952 77.5917 145.755L56.0993 124.262C54.9301 123.093 52.8977 123.093 51.7285 124.262L29.9577 146.033V146.033Z" fill="#070707" stroke="#231F20" stroke-miterlimit="10"/>
</g>
<g id="Group_12">
<path id="Vector_13" fill-rule="evenodd" clip-rule="evenodd" d="M51.2552 174.012L27.8697 150.627C26.3942 149.151 24.9187 146.367 27.5635 145.56L30.264 144.725L57.1294 171.59L56.3221 174.291C55.4312 177.242 52.7307 175.46 51.2552 173.984V174.012Z" fill="white" stroke="#231F20" stroke-miterlimit="10"/>
<path id="Vector_14" d="M54.596 176.629C53.0091 176.629 51.3666 175.154 50.7541 174.513L27.3686 151.128C26.255 150.014 25.0858 148.177 25.4755 146.673C25.6147 146.089 26.0601 145.282 27.3686 144.892L30.4867 143.945L57.9646 171.423L57.018 174.541C56.4613 176.351 55.292 176.629 54.6238 176.629H54.596ZM30.0691 145.532L27.7584 146.228C26.951 146.479 26.8675 146.868 26.8397 146.98C26.6448 147.704 27.3129 149.04 28.3709 150.098L51.7563 173.483C52.7864 174.513 53.9 175.181 54.596 175.181C54.7909 175.181 55.292 175.181 55.6261 174.096L56.3221 171.785L30.0691 145.532Z" fill="#070707" stroke="#231F20" stroke-miterlimit="10"/>
</g>
</g>
<g id="Group_13">
<g id="Group_14">
<path id="Vector_15" fill-rule="evenodd" clip-rule="evenodd" d="M150.282 126.907L128.789 148.4C127.314 149.875 127.314 152.297 128.789 153.773L151.061 176.045L177.926 149.179L155.655 126.907C154.179 125.432 151.757 125.432 150.282 126.907Z" fill="white" stroke="#231F20" stroke-miterlimit="10"/>
<path id="Vector_16" d="M151.033 177.047L128.26 154.274C126.506 152.52 126.506 149.652 128.26 147.898L149.753 126.406C151.451 124.708 154.43 124.708 156.128 126.406L178.901 149.179L151.033 177.047ZM152.954 126.517C152.119 126.517 151.339 126.852 150.783 127.408L129.29 148.901C128.093 150.098 128.093 152.074 129.29 153.272L151.061 175.042L176.924 149.179L155.153 127.408C154.569 126.824 153.789 126.517 152.982 126.517H152.954Z" fill="#070707" stroke="#231F20" stroke-miterlimit="10"/>
</g>
<g id="Group_15">
<path id="Vector_17" fill-rule="evenodd" clip-rule="evenodd" d="M179.012 153.745L155.627 177.13C154.151 178.606 151.367 180.081 150.56 177.437L149.753 174.736L176.618 147.871L179.318 148.706C182.269 149.597 180.488 152.297 179.012 153.773V153.745Z" fill="white" stroke="#231F20" stroke-miterlimit="10"/>
<path id="Vector_18" d="M152.258 179.608C151.59 179.608 150.393 179.357 149.864 177.659L148.917 174.541L176.395 147.063L179.513 148.01C180.905 148.427 181.379 149.235 181.546 149.819C181.991 151.545 180.265 153.494 179.513 154.246L156.128 177.631C155.181 178.578 153.65 179.608 152.286 179.608H152.258ZM150.532 174.931L151.228 177.242C151.479 178.077 151.924 178.188 152.258 178.188C153.01 178.188 154.179 177.548 155.098 176.629L178.483 153.244C179.653 152.074 180.321 150.849 180.154 150.181C180.07 149.847 179.708 149.569 179.096 149.374L176.785 148.678L150.504 174.959L150.532 174.931Z" fill="#070707" stroke="#231F20" stroke-miterlimit="10"/>
</g>
</g>
<g id="Group_16">
<g id="Group_17">
<path id="Vector_19" fill-rule="evenodd" clip-rule="evenodd" d="M59.7185 73.0928L81.2109 51.6004C82.6864 50.1249 82.6864 47.7029 81.2109 46.2274L58.9668 23.9555L32.0736 50.8488L54.3454 73.1206C55.8209 74.5961 58.243 74.5961 59.7185 73.1206V73.0928Z" fill="white" stroke="#231F20" stroke-miterlimit="10"/>
<path id="Vector_20" d="M57.0459 74.9302C55.8488 74.9302 54.7073 74.457 53.8443 73.6218L31.0713 50.8488L58.9668 22.9533L81.7398 45.7262C82.6029 46.5614 83.0483 47.7029 83.0483 48.9C83.0483 50.0971 82.575 51.2385 81.7398 52.1016L60.2475 73.5939C59.4123 74.457 58.2708 74.9024 57.0737 74.9024L57.0459 74.9302ZM33.0758 50.8488L54.8465 72.6195C56.0158 73.7888 58.0481 73.7888 59.2174 72.6195L80.7097 51.1272C81.2944 50.5425 81.6006 49.763 81.6006 48.9557C81.6006 48.1483 81.2944 47.341 80.7097 46.7842L58.9668 24.9577L33.0758 50.8488Z" fill="#070707" stroke="#231F20" stroke-miterlimit="10"/>
</g>
<g id="Group_18">
<path id="Vector_21" fill-rule="evenodd" clip-rule="evenodd" d="M30.9878 46.2552L54.3733 22.8697C55.8488 21.3942 58.6327 19.9187 59.4401 22.5635L60.2753 25.264L33.382 52.1573L30.6816 51.3499C27.7305 50.459 29.5123 47.7586 30.9878 46.283V46.2552Z" fill="white" stroke="#231F20" stroke-miterlimit="10"/>
<path id="Vector_22" d="M33.5769 52.9368L30.4588 51.9902C29.0668 51.5726 28.5936 50.7653 28.4265 50.1806C28.0089 48.4546 29.7072 46.5058 30.4588 45.7541L53.8721 22.3686C54.8187 21.4221 56.3499 20.392 57.714 20.392C58.3822 20.392 59.5793 20.6426 60.1083 22.3686L61.0548 25.4867L33.5769 52.9368ZM57.7419 21.8118C56.9902 21.8118 55.8209 22.4521 54.9022 23.3709L31.4889 46.7563C30.3196 47.9256 29.6515 49.1505 29.8185 49.8187C29.902 50.1528 30.264 50.4312 30.8764 50.6261L33.1871 51.3221L59.4679 25.0691L58.772 22.7584C58.5214 21.9232 58.076 21.8118 57.7419 21.8118V21.8118Z" fill="#070707" stroke="#231F20" stroke-miterlimit="10"/>
</g>
</g>
</g>
</g>
<!-- <path id="t1" opacity="0.62" d="M94.001 111C93.701 111 93.451 110.9 93.251 110.7C93.051 110.5 92.951 110.258 92.951 109.975V94.525H95.076V109.975C95.076 110.258 94.976 110.5 94.776 110.7C94.576 110.9 94.3176 111 94.001 111ZM88.201 95.4C87.9176 95.4 87.676 95.3167 87.476 95.15C87.2926 94.9667 87.201 94.7333 87.201 94.45C87.201 94.1667 87.2926 93.9417 87.476 93.775C87.676 93.5917 87.9176 93.5 88.201 93.5H99.826C100.109 93.5 100.351 93.5917 100.551 93.775C100.751 93.9417 100.851 94.1667 100.851 94.45C100.851 94.75 100.751 94.9833 100.551 95.15C100.351 95.3167 100.109 95.4 99.826 95.4H88.201ZM113.384 109.125C113.651 109.125 113.876 109.217 114.059 109.4C114.243 109.583 114.334 109.808 114.334 110.075C114.334 110.342 114.243 110.567 114.059 110.75C113.876 110.917 113.651 111 113.384 111H104.309C104.009 111 103.759 110.917 103.559 110.75C103.376 110.567 103.284 110.325 103.284 110.025C103.284 109.758 103.384 109.517 103.584 109.3L109.234 103.125C110.068 102.225 110.693 101.383 111.109 100.6C111.543 99.8 111.759 99.0917 111.759 98.475C111.759 97.4583 111.451 96.65 110.834 96.05C110.234 95.4333 109.426 95.125 108.409 95.125C107.959 95.125 107.509 95.225 107.059 95.425C106.609 95.6083 106.201 95.8667 105.834 96.2C105.468 96.5167 105.168 96.875 104.934 97.275C104.801 97.4917 104.659 97.6333 104.509 97.7C104.376 97.75 104.234 97.775 104.084 97.775C103.834 97.775 103.609 97.6917 103.409 97.525C103.209 97.3417 103.109 97.1333 103.109 96.9C103.109 96.7167 103.159 96.55 103.259 96.4C103.359 96.2333 103.493 96.05 103.659 95.85C104.009 95.3667 104.443 94.9333 104.959 94.55C105.493 94.15 106.068 93.8333 106.684 93.6C107.318 93.3667 107.934 93.25 108.534 93.25C109.601 93.25 110.526 93.4583 111.309 93.875C112.109 94.2917 112.726 94.8833 113.159 95.65C113.593 96.4167 113.809 97.3167 113.809 98.35C113.809 99.2333 113.543 100.208 113.009 101.275C112.476 102.342 111.693 103.425 110.659 104.525L106.284 109.375L106.034 109.125H113.384Z" fill="#A2774C"/> -->
</g>
</g>
</svg>
